<?xml version="1.0" encoding="UTF-8"?>
<svg id="Réteg_2" data-name="Réteg 2" xmlns="http://www.w3.org/2000/svg" viewBox="0 0 1588.07 501.22">
  <defs>
    <style>
      .cls-1 {
        letter-spacing: .04em;
      }

      .cls-2 {
        fill: #fff;
      }

      .cls-3 {
        fill: #7fbd80;
      }

      .cls-4 {
        font-family: TimesNewRomanPS-BoldMT, 'Times New Roman';
        font-size: 185.14px;
        font-weight: 700;
      }

      .cls-5 {
        letter-spacing: .06em;
      }
    </style>
  </defs>
  <g id="Réteg_1" data-name="Réteg 1">
    <g>
      <path d="m1284.83,244c-5.94-10.32-4.95-20.24-4.53-23.26H482.59c-30.43-1.27-61.38-4.67-73.7-12.82-1.78-1.18-6.1-4.03-5.78-7.26.45-4.42,19.13-8.41,32.61-10.73,8.06-1.38,16.23-2.08,24.41-2.08h770.47v-12.15H449.43s-.05.01-.09.01c-27.98,2.39-66,6.66-91.71,13.99-1.99.57-4.45,1.31-7.55,2.52-21.12,8.22-34.74,23.76-42.82,35.7,1.11.45,2.81,1.13,4.89,1.93,49.25,18.92,186.73,25.08,223.12,28.18,12.39,1.06,24.83,1.6,37.27,1.6h730.13c-2.82-1.16-11.91-5.3-17.84-15.63Z"/>
      <text class="cls-4" transform="translate(421.33 164.26)"><tspan class="cls-5" x="0" y="0">SIGNELI</tspan><tspan class="cls-1" x="843.01" y="0">T</tspan></text>
      <path d="m420.44,143.33c-10.27.19-20.84.62-31.69,1.34-34.88,2.3-66.95,7.17-95.87,13.33,0,0-97.78,20.78-165.78,60-7.15,4.12-19.42,11.74-26.22,26.22,0,0-9.17,17.69-2.67,40.44,9.03,31.6,95.5,86.71,229.78,103.56,51.81,6.5,95.47,5.39,125.78,3.11-5.99-1.67-41.1-12.1-57.33-46.67-7.77-16.56-8.11-32.03-7.56-40.89-30.37.86-165.14,2.29-201.33-71.11-2.11-4.29-3.91-8.87-5.33-13.78,82.93-28.91,161.52-43.66,234.59-48.8,2.7-.19,5.39-.37,8.07-.53v-26.22h-4.44Z"/>
      <circle class="cls-2" cx="243.78" cy="129.56" r="127.56"/>
      <path class="cls-3" d="m553.78,259.63v.04c-.15-.01-.3-.03-.44-.04h.44Z"/>
      <path class="cls-2" d="m0,295.33c5.32,13.07,15.07,32.48,32.89,51.11,12.94,13.54,26.5,23.32,49.33,35.11,59.99,30.99,109.33,44,109.33,44,88.38,23.3,132.56,34.96,204.44,46.22,27.33,4.28,104.19,15.8,215.56,23.11,153.84,10.09,271.46,5.45,304,4,124.49-5.56,211.95-18.32,299.56-31.11,0,0,93.82-13.7,216.44-52.89,0,0,36.23-11.58,83.11-38.67,9.11-5.26,35.36-20.81,57.78-48.89,8.56-10.72,12.73-18.47,14.67-27.56.88-4.11,3.96-20.94-8.89-46.22-14.65-28.82-38.61-46.22-60.44-59.56-27.34-16.7-71.29-39.23-132.44-53.78v24.99c5.28,1.31,13,3.8,21.33,8.79,6.29,3.77,14.31,8.58,20.44,18.22.81,1.28,8.13,13.1,7.56,26.67-.7,16.49-12.84,30.33-30.22,43.11-48.53,35.68-117.66,48.16-176,58.22-62.38,10.76-93.56,16.13-102.67,17.33-134.38,17.7-242.01,23.17-259.11,24-93.46,4.55-222.89,7.09-381.78-.89v32.96c-.4,4.28-1.76,11.67-7.11,18.15-6.13,7.43-14.36,9.85-19.11,11.11-38.82,10.33-63.56,8.89-63.56,8.89-46.19-2.68-69.29-4.03-90.67-7.56-37.72-6.23-72.57-11.98-117.78-27.56-56.28-19.39-96.02-42.79-122.67-58.67-26.6-15.85-48.16-30.9-64-42.67Z"/>
      <polygon points="1494.22 38 1457.33 38 1457.33 0 1446.89 0 1446.89 38 1410 38 1410 48.44 1446.89 48.44 1446.89 84.22 1457.33 84.22 1457.33 48.44 1494.22 48.44 1494.22 38"/>
    </g>
  </g>
</svg>